<?xml version="1.0" encoding="utf-8"?>
<!-- Generator: Adobe Illustrator 17.0.0, SVG Export Plug-In . SVG Version: 6.00 Build 0)  -->
<!DOCTYPE svg PUBLIC "-//W3C//DTD SVG 1.1//EN" "http://www.w3.org/Graphics/SVG/1.1/DTD/svg11.dtd">
<svg version="1.1" id="Capa_1" xmlns="http://www.w3.org/2000/svg" xmlns:xlink="http://www.w3.org/1999/xlink" x="0px" y="0px"
	 width="90px" height="90px" viewBox="0 0 90 90" enable-background="new 0 0 90 90" xml:space="preserve">
<path fill="#161616" d="M44.988,0C20.133,0,0,20.151,0,45c0,24.874,20.133,45,44.988,45C69.842,90,90,69.874,90,45
	C90,20.151,69.842,0,44.988,0z M57.965,24.255c-1.817-0.42-3.559-0.643-5.215-0.643c-1.656,0-2.818,0.396-3.522,1.187
	c-0.742,0.742-1.075,2.225-1.075,4.401v3.016h8.491v8.95h-8.491v33.948H36.793V41.167h-6.316v-8.95h6.316v-3.215
	c0-3.634,0.395-6.33,1.137-8.085c0.779-1.805,2.188-3.19,4.264-4.327c2.039-1.137,4.647-1.681,7.823-1.681
	c3.226,0,6.365,0.47,9.479,1.434L57.965,24.255z"/>
</svg>
