<?xml version="1.0" encoding="utf-8"?>
<!-- Generator: Adobe Illustrator 17.0.0, SVG Export Plug-In . SVG Version: 6.00 Build 0)  -->
<!DOCTYPE svg PUBLIC "-//W3C//DTD SVG 1.1//EN" "http://www.w3.org/Graphics/SVG/1.1/DTD/svg11.dtd">
<svg version="1.1" id="Capa_1" xmlns="http://www.w3.org/2000/svg" xmlns:xlink="http://www.w3.org/1999/xlink" x="0px" y="0px"
	 width="90px" height="90px" viewBox="0 0 90 90" enable-background="new 0 0 90 90" xml:space="preserve">
<g>
	<path fill="#161616" d="M44.976,0C20.125,0,0,20.151,0,45.024C0,69.897,20.125,90,44.976,90C69.849,90,90,69.897,90,45.024
		C90,20.151,69.849,0,44.976,0z M69.476,63.023c0,4.203-2.248,6.479-6.428,6.479c-12.09,0-24.131,0-36.221,0
		c-4.056,0-6.33-2.276-6.33-6.403c0-6.033,0-12.092,0-18.075c0-6.008,0-11.968,0-17.926c0-4.301,2.201-6.527,6.477-6.527
		c12.016,0,24.083,0,36.074,0c4.18,0,6.428,2.226,6.428,6.428C69.476,39.016,69.476,51.007,69.476,63.023z"/>
	<path fill="#161616" d="M60.526,41.241c-0.742,0-0.965,0.172-0.79,1.013c0.469,2.299,0.322,4.722-0.321,7.023
		c-2.127,7.368-9.816,11.991-17.483,10.507c-7.489-1.458-12.733-8.778-11.867-16.394c0.271-2.15,0.223-2.051-2.003-2.248
		c-1.582-0.051-2.053,0.344-2.053,2.028c0.124,5.932,0.076,11.917,0.076,17.849c0,2.276,0.643,2.894,2.891,2.894
		c5.343,0,10.682,0,15.999,0c5.339,0,10.679,0,16.021,0c2.274,0,2.892-0.618,2.917-2.894c0-5.537,0-11.1,0-16.614
		C63.914,40.92,63.914,40.993,60.526,41.241z"/>
	<path fill="#161616" d="M44.877,54.493c5.142,0.099,9.543-4.228,9.593-9.469c0.048-5.094-4.327-9.494-9.447-9.494
		c-5.117,0-9.421,4.254-9.542,9.371C35.357,50.019,39.732,54.394,44.877,54.493z"/>
	<path fill="#161616" d="M59.068,26.083c-4.747,0-4.747,0-4.747,4.798c0,4.846,0,4.846,4.846,4.846c4.747,0,4.747,0,4.747-4.747
		C63.914,26.083,63.914,26.083,59.068,26.083z"/>
</g>
</svg>
