<?xml version="1.0" encoding="utf-8"?>
<!-- Generator: Adobe Illustrator 17.0.0, SVG Export Plug-In . SVG Version: 6.00 Build 0)  -->
<!DOCTYPE svg PUBLIC "-//W3C//DTD SVG 1.1//EN" "http://www.w3.org/Graphics/SVG/1.1/DTD/svg11.dtd">
<svg version="1.1" id="Capa_1" xmlns="http://www.w3.org/2000/svg" xmlns:xlink="http://www.w3.org/1999/xlink" x="0px" y="0px"
	 width="90px" height="90px" viewBox="0 0 90 90" enable-background="new 0 0 90 90" xml:space="preserve">
<path fill="#161616" d="M44.951,0C20.1,0,0,20.101,0,44.949C0,69.826,20.1,90,44.951,90C69.849,90,90,69.826,90,44.949
	C90,20.101,69.849,0,44.951,0z M32.562,63.668h-7.145V36.594h7.145V63.668z M32.562,32.885h-7.145v-6.651h7.145V32.885z
	 M64.582,63.668h-7.195V49.846c0-2.894-0.149-4.796-0.471-5.639c-0.296-0.914-0.765-1.557-1.481-2.076
	c-0.669-0.468-1.56-0.643-2.499-0.643c-1.235,0-2.349,0.321-3.337,0.99c-0.965,0.643-1.656,1.557-2.003,2.745
	c-0.347,1.038-0.57,3.14-0.57,6.206v12.239h-7.17V36.594h6.676v3.98c2.35-3.066,5.34-4.649,8.925-4.649
	c1.582,0,3.04,0.347,4.304,0.891c1.334,0.593,2.322,1.284,2.99,2.175c0.669,0.939,1.162,1.904,1.411,2.993
	c0.245,1.137,0.42,2.719,0.42,4.894V63.668z"/>
</svg>
