<?xml version="1.0" standalone="no"?>
<!DOCTYPE svg PUBLIC "-//W3C//DTD SVG 20010904//EN"
 "http://www.w3.org/TR/2001/REC-SVG-20010904/DTD/svg10.dtd">
<svg version="1.0" xmlns="http://www.w3.org/2000/svg"
 width="700.000000pt" height="700.000000pt" viewBox="0 0 700.000000 700.000000"
 preserveAspectRatio="xMidYMid meet">
<metadata>
Created by potrace 1.11, written by Peter Selinger 2001-2013
</metadata>
<g transform="translate(0.000000,700.000000) scale(0.100000,-0.100000)"
fill="#000000" stroke="none">
<path d="M3095 4290 c-174 -51 -321 -133 -636 -357 -276 -197 -491 -337 -689
-448 -98 -56 -364 -191 -430 -219 -25 -11 -79 -35 -120 -54 -136 -62 -433
-161 -535 -177 -16 -3 -41 -8 -55 -10 -53 -11 -68 -13 -125 -20 -33 -4 -69 -9
-80 -12 -11 -2 -83 -6 -160 -9 -186 -6 -218 -11 -245 -36 -18 -17 -21 -28 -17
-56 25 -148 335 -183 777 -87 41 9 83 21 92 26 10 5 18 8 18 5 0 -18 480 170
630 247 219 113 398 213 608 338 40 24 80 49 90 54 9 6 106 70 214 143 202
135 328 215 328 208 0 -3 -23 -44 -51 -93 -54 -92 -198 -374 -244 -478 -85
-192 -88 -321 -9 -378 59 -43 122 -56 259 -53 72 2 139 6 150 9 11 3 50 13 87
21 186 44 478 177 744 337 l31 19 16 -65 c61 -247 226 -366 521 -374 87 -2
187 13 270 40 81 27 256 113 383 188 56 34 106 61 111 61 5 0 22 -17 38 -37
54 -71 107 -122 178 -171 70 -47 178 -98 228 -107 225 -41 381 -14 418 74 25
62 -32 101 -160 107 -137 7 -287 46 -355 93 -22 14 -53 46 -69 69 -45 64 -41
111 19 214 69 118 85 153 85 188 0 43 -36 76 -92 84 -66 10 -103 -9 -173 -89
-94 -107 -157 -163 -260 -232 -122 -82 -239 -146 -375 -206 -66 -29 -185 -57
-242 -57 -76 0 -155 30 -202 79 -93 95 -80 201 48 392 48 72 56 91 56 130 0
92 -61 123 -158 79 -42 -19 -172 -105 -244 -162 -95 -75 -220 -148 -403 -238
-432 -211 -651 -273 -687 -194 -17 38 1 97 82 260 64 130 134 237 241 364 20
25 52 66 71 92 18 26 57 81 86 122 88 125 131 217 128 273 -4 104 -69 139
-191 103z"/>
<path d="M6798 2958 c-53 -14 -73 -41 -72 -97 0 -59 30 -135 57 -150 85 -45
217 29 217 121 0 96 -94 155 -202 126z"/>
</g>
</svg>
