<svg xmlns="http://www.w3.org/2000/svg" width="600" height="50"><path d="M284.264 13.265c1.548-5.211 2.819-4.933 8.769-10.422 1.077-.994 0-3.648-3.611-2.605-2.579 1.042-10.832 7.816-9.801 14.069.351 1.845 3.894 1.162 4.643-1.042zm35.593 32.828c-5.674-.521-10.317 1.042-15.475-5.211-.498-.538 1.032-2.084-1.032-5.211-1.865-2.826-.258-2.345-2.063-5.732-1.094-2.052-13.927-8.858-18.57 5.211-.54 1.578-1.237 4.362-.749 6.81a3.495 3.495 0 0 0-.799-.036c-2.652.19-7.686 1.397-10.317-2.605-1.276-1.941 2.811-7.244 2.579-9.379-.126-1.158-1.6-3.308-6.19 2.605-5.181 6.675-8.769 7.295-13.412 8.858-5.58 1.879-6.963.028-7.222-3.648-.146-2.079 1.805-5.707 2.063-9.9.128-2.08-1.789-3.765-4.642-2.084-6.19 3.648-4.322 7.19-10.833 11.985-6.363 4.686-9.763 4.43-12.38 4.169-2.567-.257-1.291-2.567-1.032-5.211.254-2.593-1.927-4.812-5.158-8.337-2.478-2.703-10.832-6.774-15.475 5.211-1.29 3.371-1.416 6.116-.386 8.074-1.239-.023-5.822-.4-7.61-2.603-1.548-2.084-.502-3.224 1.032-5.732.858-1.402 1.588-3.517-1.548-3.648-2.062-.086-2.063 2.084-6.19 5.211-6.706 4.69-12.325 7.061-15.475 4.69-3.23-2.432-1.324-5.557 1.032-8.858.674-.945.516-3.648-1.548-3.126-2.579.521-5.158 3.648-9.801 6.253-2.255 1.265-11.826 5.994-14.443 5.732-2.053-.205-1.548-2.084 1.548-7.816 1.018-1.886 6.703-8.087 8.253-11.985.516-1.042.516-4.69-3.611-3.126-1.527.579-3.611 1.042-8.769 4.69-5.412 3.827-12.896 9.9-26.307 15.632-7.737 3.126-11.864 3.648-23.728 4.169-10.317.521-10.832-.521-24.244-.521-.516 0-21.149 0-34.045.521-2.577.104-14.959-.521-28.371-1.563-1.266-.098-6.19-1.563-4.642 2.084 1.547 1.563 3.329 2.084 7.48 2.345 4.119.259 8.511.261 12.896 1.042 3.611.521 12.122.782 21.149.521 5.932-.261 18.312-1.303 28.371-.521 2.622.204 14.191.625 25.018.261 11.626-.391 15.69-1.542 25.276-5.732 1.059-.463 8.942-4.664 13.927-7.816 3.228-2.041 8.253-5.732 10.317-6.774 0 0-3.095 5.211-5.158 9.9-3.095 6.253-1.29 8.077 1.805 8.598 6.706 1.042 14.701-3.387 20.891-7.035.516 3.648 2.321 6.513 5.932 7.556 6.706 1.563 10.059-.261 17.796-4.95 4.868 7.314 11.747 6.253 12.38 6.253 1.397 0 2.483-.547 3.023-1.217 4.04 1.956 7.313.824 11.162.435 5.158-.521 5.133 1.269 8.769 1.563 12.896 1.042 20.117-13.027 20.633-11.985 1.548-.521-2.082 7.475 3.095 10.943 9.801 5.211 19.344-5.471 20.891-5.471 1.032 0 .024 3.074 2.837 4.429 7.915 3.814 10.539 1.829 12.38 1.563.984-.142 1.651-.497 2.053-.929.294.341.633.657 1.042.929 4.638 3.089 11.864 1.042 16.507-1.042 5.158 4.169 7.21 5.211 19.086 5.211 4.128-.003 4.238-3.261.002-3.65zm-106.262-7.295c-1.505 3.436-8.783 3.55-10.317 1.042-.858-1.402-.162-4.805 2.063-7.816 2.41-3.261 4.642-2.084 6.706 0 1.032 1.042 2.408 4.809 1.548 6.774zm85.628 1.563c-2.229 2.674-8.29 2.766-10.832 2.084-3.153-.846-2.67-5.111 1.032-9.9.898-1.162 3.095-2.084 5.674-1.563 2.579.521 5.787 7.386 4.126 9.379zm93.108-26.835c1.046-.49 1.356-2.806-.516-4.169-1.184-.862-3.869-.261-3.611 2.605.096 1.109.563 3.233 4.127 1.564zm202.98 27.877c-2.577.109-22.708.313-26.823 0-28.97-2.202-33.013-1.563-54.678-1.042-15.097.363-12.896-1.563-25.276 0-.724.091-10.317 2.084-20.117 2.084-.516 0-11.829.822-16.472-1.783-.365-.368.288-9.247-6.999-13.589-3.944-2.35-12.638-2.345-15.475 9.9-.062.314-.113.616-.162.915-.346-1.042-.89-2.134-1.644-3.26-3.294-4.922-10.324-9.473-17.022-8.858-5.674.521-5.042 4.255-7.737 7.816-6.706 8.858-10.647 8.886-15.991 10.422-7.104 2.041-4.157-8.011-1.547-14.59.858-2.163-1.876-5.042-4.642-2.084-2.633 2.815-4.614 6.285-10.317 11.464-4.619 4.195-7.995 6.796-8.253 2.084-.029-.52-.072-8.476-1.547-12.506-.8-2.186-4.643-2.605-4.127 3.126.176 1.95.711 3.11 1.032 8.337.516 6.253 1.21 8.615 6.706 7.816 5.708-.83 8.253-4.169 12.896-8.858 0 0-.407 3.853 1.032 6.253 2.464 4.109 8.657 3.879 14.959 1.563 8.126-2.986 12.151-8.126 15.475-13.027 1.547-2.084 1.032-2.605 3.611-3.126 3.095-.521 8.985 1.188 12.38 8.858 1.332 3.009-3.611 5.732-8.253 2.605-2.194-1.37-6.529-1.983-5.158 2.084.743 2.206 5.186 4.813 12.38 3.126 2.853-.669 4.799-2.097 5.685-4.024 1.123 6.559 7.431 7.461 12.369 6.63 5.674-.521 8.769-5.211 8.769-5.211s13.508 4.155 24.244 2.605c21.665-3.126 20.633-3.648 31.466-2.605 5.161.496 23.207-.521 47.457-.521 5.158 0 22.697 2.084 41.782 1.563 5.762-.156 6.717-4.452-.003-4.167zm-156.813 4.69c-7.293-.189-5.329-8.971-2.579-13.027.163-.24.657-.581 1.032.521.854 2.513 1.547 5.211 8.253 8.858 1.015.553-1.01 3.795-6.706 3.648zm8.769-6.774c-2.579-1.042-5.158-3.126-5.674-8.337 2.063 0 6.706 5.732 5.674 8.337z"/></svg>