<svg xmlns="http://www.w3.org/2000/svg" width="90" height="90"><path fill="#161616" d="M44.988 0C20.133 0 0 20.151 0 45c0 24.874 20.133 45 44.988 45C69.842 90 90 69.874 90 45 90 20.151 69.842 0 44.988 0zm12.977 24.255c-1.817-.42-3.559-.643-5.215-.643-1.656 0-2.818.396-3.522 1.187-.742.742-1.075 2.225-1.075 4.401v3.016h8.491v8.95h-8.491v33.948h-11.36V41.167h-6.316v-8.95h6.316v-3.215c0-3.634.395-6.33 1.137-8.085.779-1.805 2.188-3.19 4.264-4.327 2.039-1.137 4.647-1.681 7.823-1.681 3.226 0 6.365.47 9.479 1.434l-1.531 7.912z"/></svg>