<svg xmlns="http://www.w3.org/2000/svg" width="90" height="90"><g fill="#161616"><path d="M44.976 0C20.125 0 0 20.151 0 45.024S20.125 90 44.976 90C69.849 90 90 69.897 90 45.024 90 20.151 69.849 0 44.976 0zm24.5 63.023c0 4.203-2.248 6.479-6.428 6.479H26.827c-4.056 0-6.33-2.276-6.33-6.403V27.098c0-4.301 2.201-6.527 6.477-6.527h36.074c4.18 0 6.428 2.226 6.428 6.428v36.024z"/><path d="M60.526 41.241c-.742 0-.965.172-.79 1.013.469 2.299.322 4.722-.321 7.023-2.127 7.368-9.816 11.991-17.483 10.507-7.489-1.458-12.733-8.778-11.867-16.394.271-2.15.223-2.051-2.003-2.248-1.582-.051-2.053.344-2.053 2.028.124 5.932.076 11.917.076 17.849 0 2.276.643 2.894 2.891 2.894h32.02c2.274 0 2.892-.618 2.917-2.894V44.405c.001-3.485.001-3.412-3.387-3.164z"/><path d="M44.877 54.493c5.142.099 9.543-4.228 9.593-9.469.048-5.094-4.327-9.494-9.447-9.494-5.117 0-9.421 4.254-9.542 9.371-.124 5.118 4.251 9.493 9.396 9.592zm14.191-28.41c-4.747 0-4.747 0-4.747 4.798 0 4.846 0 4.846 4.846 4.846 4.747 0 4.747 0 4.747-4.747 0-4.897 0-4.897-4.846-4.897z"/></g></svg>