<svg xmlns="http://www.w3.org/2000/svg" width="90" height="90"><path fill="#161616" d="M44.951 0C20.1 0 0 20.101 0 44.949 0 69.826 20.1 90 44.951 90 69.849 90 90 69.826 90 44.949 90 20.101 69.849 0 44.951 0zM32.562 63.668h-7.145V36.594h7.145v27.074zm0-30.783h-7.145v-6.651h7.145v6.651zm32.02 30.783h-7.195V49.846c0-2.894-.149-4.796-.471-5.639-.296-.914-.765-1.557-1.481-2.076-.669-.468-1.56-.643-2.499-.643-1.235 0-2.349.321-3.337.99-.965.643-1.656 1.557-2.003 2.745-.347 1.038-.57 3.14-.57 6.206v12.239h-7.17V36.594h6.676v3.98c2.35-3.066 5.34-4.649 8.925-4.649 1.582 0 3.04.347 4.304.891 1.334.593 2.322 1.284 2.99 2.175.669.939 1.162 1.904 1.411 2.993.245 1.137.42 2.719.42 4.894v16.79z"/></svg>